<?xml version="1.0" standalone="no"?><!DOCTYPE svg PUBLIC "-//W3C//DTD SVG 1.1//EN" "http://www.w3.org/Graphics/SVG/1.1/DTD/svg11.dtd"><svg t="1550297456136" class="icon" style="" viewBox="0 0 1024 1024" version="1.1" xmlns="http://www.w3.org/2000/svg" p-id="7454" xmlns:xlink="http://www.w3.org/1999/xlink" width="200" height="200"><defs><style type="text/css"></style></defs><path d="M164.3 206.4c-29.8 0-54 24.2-54 54s24.2 54 54 54 54-24.2 54-54-24.2-54-54-54zM353.2 300.4h525c20.7 0 37.5-17.9 37.5-40s-16.8-40-37.5-40h-525c-20.7 0-37.5 17.9-37.5 40s16.8 40 37.5 40zM164.3 459.2c-29.8 0-54 24.2-54 54s24.2 54 54 54 54-24.2 54-54-24.2-54-54-54zM878.2 473.2h-525c-20.7 0-37.5 17.9-37.5 40s16.8 40 37.5 40h525c20.7 0 37.5-17.9 37.5-40s-16.8-40-37.5-40zM164.3 712c-29.8 0-54 24.2-54 54s24.2 54 54 54 54-24.2 54-54-24.2-54-54-54zM878.2 726h-525c-20.7 0-37.5 17.9-37.5 40s16.8 40 37.5 40h525c20.7 0 37.5-17.9 37.5-40s-16.8-40-37.5-40z" fill="" p-id="7455"></path></svg>