<?xml version="1.0" standalone="no"?><!DOCTYPE svg PUBLIC "-//W3C//DTD SVG 1.1//EN" "http://www.w3.org/Graphics/SVG/1.1/DTD/svg11.dtd"><svg t="1554093417134" class="icon" style="" viewBox="0 0 1024 1024" version="1.1" xmlns="http://www.w3.org/2000/svg" p-id="2823" xmlns:xlink="http://www.w3.org/1999/xlink" width="200" height="200"><defs><style type="text/css"></style></defs><path d="M743.991 366.045c-41.348 44.408-81.526 89.88-81.526 89.88-20.271 22.506-54.075 23.5-75.504 2.21-21.435-21.283-22.378-56.784-2.107-79.29 0 0 81.699-87.763 137.481-146.339 34.323-36.05-3.731-45.124-35.711-45.124H251.437c-35.407 0-59.519 17.968-59.519 56.274l0.176 545.475c0 38.24 22.055 63.021 57.207 63.021l496.663 0.01c35.126 0 59.346-24.022 59.346-62.322V374.354c-4.285-47.266-22.843-48.723-61.319-8.308v-0.001z m-452.989 70.63h197.811c13.167 0 19.78 6.285 19.78 20.777 0 14.402-6.548 20.777-19.78 20.777H291.002c-13.153 0-19.788-6.27-19.788-20.777 0-14.395 6.552-20.777 19.788-20.777z m415.403 249.292H291.002c-13.133 0-19.788-6.268-19.788-20.771 0-14.396 6.669-20.778 19.788-20.778h415.403c13.122 0 19.778 6.282 19.778 20.778 0.001 14.403-6.657 20.771-19.778 20.771z m171.807-533.184c-7.441-8.201-18.444-9.385-24.576-2.614L595.76 414.542c-6.142 6.763-5.073 18.901 2.372 27.101 7.446 8.201 18.46 9.378 24.593 2.625l257.878-264.394c6.128-6.753 5.072-18.884-2.391-27.091z" p-id="2824"></path></svg>