<?xml version="1.0" standalone="no"?><!DOCTYPE svg PUBLIC "-//W3C//DTD SVG 1.1//EN" "http://www.w3.org/Graphics/SVG/1.1/DTD/svg11.dtd"><svg t="1554093683927" class="icon" style="" viewBox="0 0 1024 1024" version="1.1" xmlns="http://www.w3.org/2000/svg" p-id="4910" xmlns:xlink="http://www.w3.org/1999/xlink" width="200" height="200"><defs><style type="text/css"></style></defs><path d="M680 1024H120C53.8 1024 0 970.2 0 904V120C0 53.8 53.8 0 120 0h560c22.1 0 40 17.9 40 40s-17.9 40-40 40H120c-22.1 0-40 17.9-40 40v784c0 22.1 17.9 40 40 40h560c22.1 0 40 17.9 40 40s-17.9 40-40 40zM784 752c-10.2 0-20.5-3.9-28.3-11.7-15.6-15.6-15.6-40.9 0-56.6l200-200c15.6-15.6 40.9-15.6 56.6 0s15.6 40.9 0 56.6l-200 200c-7.8 7.8-18.1 11.7-28.3 11.7z" fill="" p-id="4911"></path><path d="M984 552c-10.2 0-20.5-3.9-28.3-11.7l-200-200c-15.6-15.6-15.6-40.9 0-56.6s40.9-15.6 56.6 0l200 200c15.6 15.6 15.6 40.9 0 56.6-7.8 7.8-18.1 11.7-28.3 11.7z" fill="" p-id="4912"></path><path d="M949.4 552h-560c-22.1 0-40-17.9-40-40s17.9-40 40-40h560c22.1 0 40 17.9 40 40s-17.9 40-40 40z" fill="" p-id="4913"></path></svg>