<?xml version="1.0" standalone="no"?><!DOCTYPE svg PUBLIC "-//W3C//DTD SVG 1.1//EN" "http://www.w3.org/Graphics/SVG/1.1/DTD/svg11.dtd"><svg t="1548752690263" class="icon" style="" viewBox="0 0 1024 1024" version="1.1" xmlns="http://www.w3.org/2000/svg" p-id="5032" xmlns:xlink="http://www.w3.org/1999/xlink" width="64" height="64"><defs><style type="text/css"></style></defs><path d="M945.39277716 892.64560878L746.37062639 695.67036251c-4.09381029-4.09381029-8.97489145-6.92798565-14.48579005-8.18761928 55.58134374-66.60314097 88.48927946-150.99861013 88.48927946-242.95188241 0-208.62685967-168.79093831-377.57525139-377.57525139-377.57525138-208.46940498 0-377.2603433 168.79093831-377.2603433 377.41779798s168.79093831 377.57525139 377.57525139 377.5752514c91.95327228 0 175.71892396-32.90793441 241.53479407-87.22964583 2.04690449 4.88108115 4.72362646 9.60470762 8.97489144 13.6985179l199.02215077 196.97524627c15.11560622 14.48579005 38.41883302 14.48579005 53.53443924 0 14.95815153-14.32833536 14.32833536-38.26137834-0.78727086-52.74716838z m-502.43645807-139.34699674c-170.83784282 0-308.92520591-137.92990841-308.92520591-308.92520462 0-170.83784282 137.92990841-308.92520591 308.92520591-308.92520591C613.95161661 135.6056549 751.88152501 273.53556331 751.88152501 444.37340742c0 170.9952975-137.92990841 308.92520591-308.92520592 308.92520462z m0 0" p-id="5033"></path></svg>