<?xml version="1.0" standalone="no"?><!DOCTYPE svg PUBLIC "-//W3C//DTD SVG 1.1//EN" "http://www.w3.org/Graphics/SVG/1.1/DTD/svg11.dtd"><svg t="1554093643113" class="icon" style="" viewBox="0 0 1024 1024" version="1.1" xmlns="http://www.w3.org/2000/svg" p-id="3566" xmlns:xlink="http://www.w3.org/1999/xlink" width="200" height="200"><defs><style type="text/css"></style></defs><path d="M915.9 416h-78.7c-7.4-16-17.9-49.3-31.4-73l55.6-54c17.6-17.6 17.6-45.2 0-62.7l-63.5-63.1c-17.5-17.5-45.9-17.3-63.5 0.2l-52.5 55.7c-23.7-13.5-56.9-23.9-72.9-31.3v-78.7c0-24.8-26.3-44.9-51.1-44.9h-89.8c-24.8 0-51.1 20.1-51.1 44.9v78.7c-16 7.4-49.2 17.9-72.9 31.4L290 163.6c-17.6-17.6-45.2-17.6-62.7 0l-63.1 63.5c-17.5 17.5-17.3 45.9 0.2 63.5l55.7 52.5c-13.5 23.7-23.9 57-31.3 72.9h-78.7c-24.8 0-44.9 26.3-44.9 51.1v89.8c0 24.8 20.1 51.1 44.9 51.1h78.7c7.4 16 18 49.2 31.4 72.9L164.7 735c-17.6 17.6-17.6 45.2 0 62.7l63.5 63.1c17.5 17.5 45.9 17.3 63.5-0.2l52.5-55.7c23.7 13.5 56.9 23.9 72.9 31.3v78.7c0 24.8 26.3 44.9 51.1 44.9H558c24.8 0 51.1-20.1 51.1-44.9v-78.7c16-7.4 49.2-18 73-31.4l54.1 55.6c17.6 17.6 45.2 17.6 62.7 0l63.1-63.5c17.5-17.5 17.3-45.9-0.2-63.5l-55.7-52.5c13.4-23.7 23.9-56.9 31.3-72.9h78.7c24.8 0 44.9-26.3 44.9-51.1v-89.8c-0.2-24.8-20.3-51.1-45.1-51.1z m-403 296.9c-98.8 0-178.9-83.1-178.9-185.6s80.1-185.6 178.9-185.6 178.9 83.1 178.9 185.6-80.1 185.6-178.9 185.6z" fill="#555656" p-id="3567"></path></svg>